<svg baseProfile="basic" xmlns="http://www.w3.org/2000/svg" viewBox="0 0 820 312" xml:space="preserve"><path d="M410 287c-194 0-350-59-350-131C60 83 217 25 410 25s350 58 350 131c0 72-157 131-350 131z" fill="red"/><path d="M410 11C197 11 24 76 24 156s173 145 386 145 386-65 386-145S623 11 410 11zm0 276c-194 0-350-59-350-131C60 83 217 25 410 25s350 58 350 131c0 72-157 131-350 131z"/><path d="M255 238v-28l-20 2h-40v-45h20l3 1h11l13 1v-28l-20 2h-27v-42h28l2 1h11l14 1V76h-86l2 24v42l-9-1v28l9-1v54l-2 16h91zm124-11-5-7-12-18-1-3-18-30c17-15 25-31 25-50 0-17-7-30-18-37-8-4-17-6-33-6h-47l2 24v122l-2 16h33l-1-24-1-8v-49l8 11 6 8 2 3 19 34 2 3 14 27 27-16zm-78-75v-51h14c17 0 24 6 24 20 0 9-4 16-12 24l-5-8-21 15zm124 86c-2-9-2-13-2-24V92l1-16h-33a224 224 0 0 1 2 32v114l-2 16h34zM658 82c-13-6-23-8-34-8-24 0-41 16-41 40 0 14 6 24 27 41l11 9c15 13 20 20 20 28 0 12-11 21-29 21-10 0-22-4-33-10v31c14 4 23 6 33 6 34 0 57-21 57-52 1-17-7-29-30-47l-10-9c-13-11-18-16-18-22 0-7 6-11 14-11s21 5 33 11V82zm-88 31c6-9 9-21 9-30 0-12-4-20-11-20-5 0-10 7-10 16 0 8 4 15 9 15-2 9-4 13-8 19h11zm-91 51 34 52 5 7 4 7 6 13 27-19c-7-7-13-16-20-25l-33-49 29-39 1-2 7-8 9-11-24-19c-3 7-10 17-14 22l-2 3-29 40V92l2-16h-33l1 24 1 8v98l-1 8v8l-1 16h33l-2-24v-50z" fill-rule="evenodd" clip-rule="evenodd"/><path d="M264 242v-28l-21 1h-40v-44h34l14 2v-28l-21 2h-26v-42h30l11 1 13 1V79h-86c2 9 2 14 2 24v43l-9-1v28l9-1v53l-2 16 92 1zm123-11-5-7-11-18-2-3-18-30c17-15 25-31 25-51 0-16-7-29-18-36-8-5-17-7-33-7h-47l2 25v121l-2 17h33l-1-25-1-8v-48l8 10 6 8 1 3 20 34 2 3 14 28 27-16zm-78-75v-51h14c18 0 24 5 24 19 0 10-4 17-12 25l-5-9-21 16zm124 86c-2-9-2-13-2-25V96l2-17h-33l1 25v121l-2 17h34zm141-125c5-9 8-21 8-31 0-11-4-19-10-19s-11 7-11 16c0 8 4 15 9 15-2 9-4 13-8 19h12zm94-32c-14-5-24-7-34-7-24 0-41 16-41 39 0 15 6 24 27 42l11 9c15 13 20 19 20 27 0 13-12 21-29 21-11 0-22-3-33-9v31c13 4 23 5 33 5 34 0 57-20 57-51 0-18-7-29-30-48l-10-8c-14-11-18-17-18-23s5-10 13-10c9 0 22 4 34 11V85zm-181 83 34 52 5 7 4 6 7 13 26-18c-7-7-13-16-20-26l-33-49 28-38 2-3 7-8 9-10-24-19c-3 7-10 16-14 22l-2 3-29 40v-37l1-8 1-16h-33l2 24v114l-1 8-1 16h33l-2-24v-49z" fill="#fff" fill-rule="evenodd" clip-rule="evenodd"/></svg>